<svg id="Layer_1" data-name="Layer 1" xmlns="http://www.w3.org/2000/svg" viewBox="0 0 252.24 123.13"><defs><style>.cls-1,.cls-3,.cls-6{fill:none;}.cls-1,.cls-6{stroke:#000;}.cls-1,.cls-3,.cls-5,.cls-6{stroke-miterlimit:10;}.cls-1{stroke-width:50px;}.cls-2,.cls-5{fill:#fc3d03;}.cls-3{stroke:#fc3d03;stroke-width:5px;}.cls-4{fill:#fff;}.cls-5{stroke:#fff;stroke-width:0.5px;}</style></defs><path class="cls-1" d="M457.35,429.24" transform="translate(-882.93 -113.02)"/><ellipse class="cls-2" cx="127.2" cy="74.56" rx="78.49" ry="39.15"/><circle class="cls-2" cx="154.8" cy="14.09" r="14.09"/><path class="cls-3" d="M1401.35,269.22" transform="translate(-882.93 -113.02)"/><path class="cls-3" d="M1397.26-106" transform="translate(-882.93 -113.02)"/><circle class="cls-4" cx="154.8" cy="14.09" r="9.54"/><circle cx="154.73" cy="14.14" r="6.61"/><polygon class="cls-2" points="144.2 43 148.69 23.5 157.33 25.49 151.07 52.67 142.43 50.68 144.2 43"/><circle class="cls-4" cx="158.77" cy="10.72" r="2.99"/><circle class="cls-2" cx="97.86" cy="14.46" r="14.09"/><circle class="cls-4" cx="97.86" cy="14.46" r="9.54"/><circle cx="97.81" cy="14.54" r="6.61"/><polygon class="cls-2" points="101.2 45.08 96.56 25.61 105.19 23.55 111.66 50.68 103.03 52.74 101.2 45.08"/><circle class="cls-4" cx="101.9" cy="10.92" r="2.99"/><path class="cls-2" d="M1065.7-50.83" transform="translate(-882.93 -113.02)"/><path class="cls-2" d="M1095.07,168.48s-38.12-40.72,20-46.19" transform="translate(-882.93 -113.02)"/><path class="cls-2" d="M1135.17,142.39s-11.41,54.6-49.32,10.15" transform="translate(-882.93 -113.02)"/><polygon class="cls-2" points="209.63 43.76 218.94 53.07 201.45 70.56 192.45 61.56 209.63 43.76"/><path class="cls-2" d="M929.11,163.93s-40.71,38.12-46.18-20" transform="translate(-882.93 -113.02)"/><path class="cls-2" d="M902,124.84s54.6,11.4,10.15,49.31" transform="translate(-882.93 -113.02)"/><polygon class="cls-2" points="34.5 53.42 43.8 44.12 61.29 61.6 52.29 70.6 34.5 53.42"/><path class="cls-2" d="M943.17,208" transform="translate(-882.93 -113.02)"/><line class="cls-3" x1="73.46" y1="97.14" x2="55.53" y2="119.78"/><path class="cls-5" d="M982.28,190.51l-4.82,1.37-5.76-20.35,4.81-1.36Zm-2.94-10.9,2.88-11.06,5-1.43-3.17,10.76,9.49,9.42L988,188.88Z" transform="translate(-882.93 -113.02)"/><path class="cls-5" d="M1009.91,172.13a5.55,5.55,0,0,1-1.95,4.61,8.16,8.16,0,0,1-2.11,1.32l5.82,8.74L1006,187l-4.83-7.94-1.42.05.26,8.08-5,.16-.67-21.13L1001,166c2.87-.1,5.06.36,6.56,1.36A5.58,5.58,0,0,1,1009.91,172.13Zm-5.16.16a2.65,2.65,0,0,0-1-2.19,4.34,4.34,0,0,0-2.67-.61l-1.66,0,.19,6.12,1.86-.06a3.61,3.61,0,0,0,2.47-.84A3.12,3.12,0,0,0,1004.75,172.29Z" transform="translate(-882.93 -113.02)"/><path class="cls-5" d="M1024.33,184.9l-6.06-1.3-2,4.23-5.12-1.1,10.76-19.32,5.94,1.28,1.89,22-5.24-1.12Zm-4.52-4.68,4.48,1-.28-9.63Z" transform="translate(-882.93 -113.02)"/><path class="cls-5" d="M1047.6,192.65a5.89,5.89,0,0,1-2,2.43,5,5,0,0,1-2.55.86,9.19,9.19,0,0,1-2.93-.34,18.09,18.09,0,0,1-3.09-1.18l-6.31-3.07,9.25-19,6,2.93a16,16,0,0,1,2.66,1.59,8.08,8.08,0,0,1,1.94,1.93,4.57,4.57,0,0,1,.87,2.27,4.77,4.77,0,0,1-.54,2.61,4.29,4.29,0,0,1-1.44,1.73,4.56,4.56,0,0,1-1.94.74,6.18,6.18,0,0,1-2.1-.08,8.33,8.33,0,0,1,1.7,1.61,4.64,4.64,0,0,1,1,2.21A4.54,4.54,0,0,1,1047.6,192.65Zm-4.55-2.43a3.09,3.09,0,0,0,.38-1.77,2.37,2.37,0,0,0-.69-1.37,5.71,5.71,0,0,0-1.53-1.05l-1.86-.9-2.49,5.13,1.66.81a9.19,9.19,0,0,0,1.3.51,3.64,3.64,0,0,0,1.24.17,2.07,2.07,0,0,0,1.11-.39A3,3,0,0,0,1043.05,190.22Zm3.16-8.3a2.07,2.07,0,0,0,.08-2,4.18,4.18,0,0,0-1.94-1.57l-1.39-.67-2.14,4.4,1.52.74a3.62,3.62,0,0,0,2.37.49A2.35,2.35,0,0,0,1046.21,181.92Z" transform="translate(-882.93 -113.02)"/><path class="cls-6" d="M1023.64,196.65c0,3.29-7,6-15.75,6s-15.75-2.67-15.75-6" transform="translate(-882.93 -113.02)"/><line class="cls-3" x1="199.07" y1="121.98" x2="185.83" y2="96.32"/></svg>